<mxfile version="13.4.2" type="github" etag="H-5MtJ2dQdoAyQHAM4Vf" agent="5.0 (Windows NT 10.0; Win64; x64) AppleWebKit/537.36 (KHTML, like Gecko) Chrome/64.0.3282.140 Safari/537.36 Edge/18.17763" modified="2020-07-13T03:35:29.920Z" host="app.diagrams.net">
  <diagram id="K841JQn34HRRrsSOSrEb" name="Page-1">
    <mxGraphModel grid="1" shadow="0" math="0" pageHeight="1169" pageWidth="827" pageScale="1" page="1" fold="1" arrows="1" connect="1" tooltips="1" guides="1" gridSize="10" dy="400" dx="723">
      <root>
        <mxCell id="0" />
        <mxCell id="1" parent="0" />
        <mxCell id="vYmINC7X5dK-ffHIf7T--13" value="" parent="1" vertex="1" style="rounded=0;whiteSpace=wrap;html=1;dashed=1;">
          <mxGeometry as="geometry" height="220" width="160" y="1590" x="580" />
        </mxCell>
        <mxCell id="OwMu27jhyjzwBgv88Kzw-33" value="" parent="1" vertex="1" style="rounded=0;whiteSpace=wrap;html=1;dashed=1;">
          <mxGeometry as="geometry" height="100" width="304" y="1410" x="176" />
        </mxCell>
        <mxCell id="OwMu27jhyjzwBgv88Kzw-24" value="" parent="1" vertex="1" style="rounded=0;whiteSpace=wrap;html=1;dashed=1;">
          <mxGeometry as="geometry" height="160" width="355" y="1200" x="165" />
        </mxCell>
        <mxCell id="OwMu27jhyjzwBgv88Kzw-19" value="" parent="1" vertex="1" style="rounded=0;whiteSpace=wrap;html=1;dashed=1;">
          <mxGeometry as="geometry" height="260" width="500" y="770" x="110" />
        </mxCell>
        <mxCell id="8TcAFzx-M_xFQQ5Gom9a-20" value="" parent="1" vertex="1" style="rounded=0;whiteSpace=wrap;html=1;strokeColor=#666666;">
          <mxGeometry as="geometry" height="30" width="440" y="280" x="160" />
        </mxCell>
        <mxCell id="8TcAFzx-M_xFQQ5Gom9a-1" value="大前端(医院，药店，慢特病服务站)" parent="1" vertex="1" style="rounded=0;whiteSpace=wrap;html=1;fillColor=#d5e8d4;strokeColor=#82b366;">
          <mxGeometry as="geometry" height="30" width="440" y="80" x="160" />
        </mxCell>
        <mxCell id="8TcAFzx-M_xFQQ5Gom9a-2" value="" parent="1" vertex="1" style="rounded=0;whiteSpace=wrap;html=1;strokeColor=#00994D;">
          <mxGeometry as="geometry" height="30" width="440" y="110" x="160" />
        </mxCell>
        <mxCell id="8TcAFzx-M_xFQQ5Gom9a-3" value="web端" parent="1" vertex="1" style="rounded=0;whiteSpace=wrap;html=1;fillColor=#d5e8d4;strokeColor=#82b366;">
          <mxGeometry as="geometry" height="20" width="80" y="115" x="250" />
        </mxCell>
        <mxCell id="8TcAFzx-M_xFQQ5Gom9a-4" value="ios端" parent="1" vertex="1" style="rounded=0;whiteSpace=wrap;html=1;fillColor=#d5e8d4;strokeColor=#82b366;">
          <mxGeometry as="geometry" height="20" width="80" y="115" x="350" />
        </mxCell>
        <mxCell id="8TcAFzx-M_xFQQ5Gom9a-6" value="Android端" parent="1" vertex="1" style="rounded=0;whiteSpace=wrap;html=1;fillColor=#d5e8d4;strokeColor=#82b366;">
          <mxGeometry as="geometry" height="20" width="80" y="115" x="450" />
        </mxCell>
        <mxCell id="8TcAFzx-M_xFQQ5Gom9a-8" value="Nginx负载均衡层" parent="1" vertex="1" style="rounded=0;whiteSpace=wrap;html=1;fillColor=#d5e8d4;strokeColor=#82b366;">
          <mxGeometry as="geometry" height="30" width="440" y="180" x="160" />
        </mxCell>
        <mxCell id="8TcAFzx-M_xFQQ5Gom9a-9" value="业务网关层" parent="1" vertex="1" style="rounded=0;whiteSpace=wrap;html=1;fillColor=#f5f5f5;strokeColor=#666666;fontColor=#333333;">
          <mxGeometry as="geometry" height="30" width="440" y="250" x="160" />
        </mxCell>
        <mxCell id="8TcAFzx-M_xFQQ5Gom9a-15" value="" parent="1" style="endArrow=classic;html=1;" edge="1">
          <mxGeometry as="geometry" height="50" width="50" relative="1">
            <mxPoint as="sourcePoint" y="144" x="379.5" />
            <mxPoint as="targetPoint" y="179.83333333333331" x="379.5" />
          </mxGeometry>
        </mxCell>
        <mxCell id="8TcAFzx-M_xFQQ5Gom9a-16" value="" parent="1" style="endArrow=classic;html=1;" edge="1">
          <mxGeometry as="geometry" height="50" width="50" relative="1">
            <mxPoint as="sourcePoint" y="214.16999999999996" x="379.49999999999994" />
            <mxPoint as="targetPoint" y="250.00333333333327" x="379.49999999999994" />
          </mxGeometry>
        </mxCell>
        <mxCell id="8TcAFzx-M_xFQQ5Gom9a-18" value="黑白名单" parent="1" vertex="1" style="rounded=0;whiteSpace=wrap;html=1;fillColor=#f5f5f5;strokeColor=#666666;fontColor=#333333;">
          <mxGeometry as="geometry" height="20" width="60" y="285" x="228.25" />
        </mxCell>
        <mxCell id="8TcAFzx-M_xFQQ5Gom9a-19" value="鉴权" parent="1" vertex="1" style="rounded=0;whiteSpace=wrap;html=1;fillColor=#f5f5f5;strokeColor=#666666;fontColor=#333333;">
          <mxGeometry as="geometry" height="20" width="60" y="285" x="308.25" />
        </mxCell>
        <mxCell id="8TcAFzx-M_xFQQ5Gom9a-21" value="防刷" parent="1" vertex="1" style="rounded=0;whiteSpace=wrap;html=1;fillColor=#f5f5f5;strokeColor=#666666;fontColor=#333333;">
          <mxGeometry as="geometry" height="20" width="60" y="285" x="471.75" />
        </mxCell>
        <mxCell id="8TcAFzx-M_xFQQ5Gom9a-22" value="请求校验" parent="1" vertex="1" style="rounded=0;whiteSpace=wrap;html=1;fillColor=#f5f5f5;strokeColor=#666666;fontColor=#333333;">
          <mxGeometry as="geometry" height="20" width="60" y="285" x="388.25" />
        </mxCell>
        <mxCell id="8TcAFzx-M_xFQQ5Gom9a-24" value="核心业务层" parent="1" vertex="1" style="rounded=0;whiteSpace=wrap;html=1;fillColor=#fff2cc;strokeColor=#d6b656;">
          <mxGeometry as="geometry" height="30" width="440" y="349" x="160" />
        </mxCell>
        <mxCell id="8TcAFzx-M_xFQQ5Gom9a-25" value="基础支撑层(中间件，可复用)" parent="1" vertex="1" style="rounded=0;whiteSpace=wrap;html=1;fillColor=#e1d5e7;strokeColor=#9673a6;">
          <mxGeometry as="geometry" height="30" width="440" y="489.00000000000005" x="160" />
        </mxCell>
        <mxCell id="8TcAFzx-M_xFQQ5Gom9a-26" value="" parent="1" vertex="1" style="rounded=0;whiteSpace=wrap;html=1;strokeColor=#FFCC99;">
          <mxGeometry as="geometry" height="70" width="440" y="379" x="160" />
        </mxCell>
        <mxCell id="8TcAFzx-M_xFQQ5Gom9a-27" value="&lt;p class=&quot;MsoNormal&quot;&gt;&lt;font face=&quot;等线&quot; style=&quot;font-size: 12px&quot;&gt;处方上传&lt;/font&gt;&lt;/p&gt;" parent="1" vertex="1" style="rounded=0;whiteSpace=wrap;html=1;fillColor=#fff2cc;strokeColor=#d6b656;">
          <mxGeometry as="geometry" height="20" width="80" y="389" x="205" />
        </mxCell>
        <mxCell id="8TcAFzx-M_xFQQ5Gom9a-28" value="&lt;p class=&quot;MsoNormal&quot;&gt;&lt;font face=&quot;等线&quot; style=&quot;font-size: 12px&quot;&gt;处方查询&lt;/font&gt;&lt;/p&gt;" parent="1" vertex="1" style="rounded=0;whiteSpace=wrap;html=1;fillColor=#fff2cc;strokeColor=#d6b656;">
          <mxGeometry as="geometry" height="20" width="80" y="389" x="295" />
        </mxCell>
        <mxCell id="8TcAFzx-M_xFQQ5Gom9a-29" value="&lt;p class=&quot;MsoNormal&quot;&gt;&lt;font face=&quot;等线&quot; style=&quot;font-size: 12px&quot;&gt;处方废弃功能&lt;/font&gt;&lt;/p&gt;" parent="1" vertex="1" style="rounded=0;whiteSpace=wrap;html=1;fillColor=#fff2cc;strokeColor=#d6b656;">
          <mxGeometry as="geometry" height="20" width="80" y="389" x="385" />
        </mxCell>
        <mxCell id="8TcAFzx-M_xFQQ5Gom9a-30" value="&lt;p class=&quot;MsoNormal&quot;&gt;&lt;font face=&quot;等线&quot; style=&quot;font-size: 12px&quot;&gt;缴费信息上传&lt;/font&gt;&lt;/p&gt;" parent="1" vertex="1" style="rounded=0;whiteSpace=wrap;html=1;fillColor=#fff2cc;strokeColor=#d6b656;">
          <mxGeometry as="geometry" height="20" width="80" y="389" x="475" />
        </mxCell>
        <mxCell id="8TcAFzx-M_xFQQ5Gom9a-31" value="&lt;p class=&quot;MsoNormal&quot;&gt;&lt;font face=&quot;等线&quot; style=&quot;font-size: 12px&quot;&gt;权限系统&lt;/font&gt;&lt;/p&gt;" parent="1" vertex="1" style="rounded=0;whiteSpace=wrap;html=1;fillColor=#fff2cc;strokeColor=#d6b656;">
          <mxGeometry as="geometry" height="20" width="80" y="419" x="250" />
        </mxCell>
        <mxCell id="8TcAFzx-M_xFQQ5Gom9a-32" value="&lt;p class=&quot;MsoNormal&quot;&gt;&lt;font face=&quot;等线&quot; style=&quot;font-size: 12px&quot;&gt;SSO单点登录&lt;/font&gt;&lt;/p&gt;" parent="1" vertex="1" style="rounded=0;whiteSpace=wrap;html=1;fillColor=#fff2cc;strokeColor=#d6b656;">
          <mxGeometry as="geometry" height="20" width="80" y="419" x="340" />
        </mxCell>
        <mxCell id="8TcAFzx-M_xFQQ5Gom9a-33" value="&lt;p class=&quot;MsoNormal&quot;&gt;&lt;font face=&quot;等线&quot; style=&quot;font-size: 12px&quot;&gt;数据可视化报表&lt;/font&gt;&lt;/p&gt;" parent="1" vertex="1" style="rounded=0;whiteSpace=wrap;html=1;fillColor=#fff2cc;strokeColor=#d6b656;">
          <mxGeometry as="geometry" height="20" width="90" y="419" x="430" />
        </mxCell>
        <mxCell id="8TcAFzx-M_xFQQ5Gom9a-37" value="" parent="1" style="endArrow=classic;html=1;" edge="1">
          <mxGeometry as="geometry" height="50" width="50" relative="1">
            <mxPoint as="sourcePoint" y="309.99999999999994" x="379.5" />
            <mxPoint as="targetPoint" y="345.8333333333333" x="379.5" />
          </mxGeometry>
        </mxCell>
        <mxCell id="8TcAFzx-M_xFQQ5Gom9a-40" value="" parent="1" vertex="1" style="rounded=0;whiteSpace=wrap;html=1;strokeColor=#666666;">
          <mxGeometry as="geometry" height="31" width="440" y="519" x="160" />
        </mxCell>
        <mxCell id="8TcAFzx-M_xFQQ5Gom9a-41" value="&lt;p class=&quot;MsoNormal&quot;&gt;&lt;font face=&quot;等线&quot; style=&quot;font-size: 12px&quot;&gt;消息队列&lt;/font&gt;&lt;/p&gt;" parent="1" vertex="1" style="rounded=0;whiteSpace=wrap;html=1;fillColor=#e1d5e7;strokeColor=#9673a6;">
          <mxGeometry as="geometry" height="20" width="80" y="525" x="173.25" />
        </mxCell>
        <mxCell id="8TcAFzx-M_xFQQ5Gom9a-42" value="&lt;p class=&quot;MsoNormal&quot;&gt;&lt;font face=&quot;等线&quot; style=&quot;font-size: 12px&quot;&gt;缓存&lt;/font&gt;&lt;/p&gt;" parent="1" vertex="1" style="rounded=0;whiteSpace=wrap;html=1;fillColor=#e1d5e7;strokeColor=#9673a6;">
          <mxGeometry as="geometry" height="20" width="51.75" y="525" x="263.25" />
        </mxCell>
        <mxCell id="8TcAFzx-M_xFQQ5Gom9a-43" value="&lt;p class=&quot;MsoNormal&quot;&gt;&lt;font face=&quot;等线&quot; style=&quot;font-size: 12px&quot;&gt;定时任务&lt;/font&gt;&lt;/p&gt;" parent="1" vertex="1" style="rounded=0;whiteSpace=wrap;html=1;fillColor=#e1d5e7;strokeColor=#9673a6;">
          <mxGeometry as="geometry" height="20" width="80" y="525" x="325" />
        </mxCell>
        <mxCell id="8TcAFzx-M_xFQQ5Gom9a-44" value="&lt;p class=&quot;MsoNormal&quot;&gt;&lt;font face=&quot;等线&quot; style=&quot;font-size: 12px&quot;&gt;代码质量管理&lt;/font&gt;&lt;/p&gt;" parent="1" vertex="1" style="rounded=0;whiteSpace=wrap;html=1;fillColor=#e1d5e7;strokeColor=#9673a6;">
          <mxGeometry as="geometry" height="20" width="80" y="525" x="416.75" />
        </mxCell>
        <mxCell id="8TcAFzx-M_xFQQ5Gom9a-46" value="&lt;p class=&quot;MsoNormal&quot;&gt;&lt;font face=&quot;等线&quot; style=&quot;font-size: 12px&quot;&gt;调用链追踪&lt;/font&gt;&lt;/p&gt;" parent="1" vertex="1" style="rounded=0;whiteSpace=wrap;html=1;fillColor=#e1d5e7;strokeColor=#9673a6;">
          <mxGeometry as="geometry" height="20" width="80" y="525" x="506.75" />
        </mxCell>
        <mxCell id="8TcAFzx-M_xFQQ5Gom9a-47" value="" parent="1" style="endArrow=classic;html=1;" edge="1">
          <mxGeometry as="geometry" height="50" width="50" relative="1">
            <mxPoint as="sourcePoint" y="488.16999999999996" x="379.5" />
            <mxPoint as="targetPoint" y="449.0033333333332" x="379.75" />
          </mxGeometry>
        </mxCell>
        <mxCell id="8TcAFzx-M_xFQQ5Gom9a-48" value="监控&amp;nbsp; /&amp;nbsp; 运维" parent="1" vertex="1" style="rounded=0;whiteSpace=wrap;html=1;strokeColor=#B09500;fillColor=#e3c800;">
          <mxGeometry as="geometry" height="30" width="440" y="590" x="160" />
        </mxCell>
        <mxCell id="8TcAFzx-M_xFQQ5Gom9a-49" value="" parent="1" vertex="1" style="rounded=0;whiteSpace=wrap;html=1;fontColor=#000000;strokeColor=#FFFF00;">
          <mxGeometry as="geometry" height="30" width="440" y="620" x="160" />
        </mxCell>
        <mxCell id="8TcAFzx-M_xFQQ5Gom9a-50" value="&lt;p class=&quot;MsoNormal&quot;&gt;&lt;font face=&quot;等线&quot; color=&quot;#000000&quot;&gt;硬件监控&lt;/font&gt;&lt;/p&gt;" parent="1" vertex="1" style="rounded=0;whiteSpace=wrap;html=1;fillColor=#e3c800;strokeColor=#B09500;fontColor=#ffffff;">
          <mxGeometry as="geometry" height="20" width="64.25" y="625" x="182.5" />
        </mxCell>
        <mxCell id="8TcAFzx-M_xFQQ5Gom9a-51" value="&lt;p class=&quot;MsoNormal&quot;&gt;&lt;font face=&quot;等线&quot; color=&quot;#000000&quot;&gt;应用监控&lt;/font&gt;&lt;/p&gt;" parent="1" vertex="1" style="rounded=0;whiteSpace=wrap;html=1;fillColor=#e3c800;strokeColor=#B09500;fontColor=#ffffff;">
          <mxGeometry as="geometry" height="20" width="67.5" y="625" x="259.25" />
        </mxCell>
        <mxCell id="8TcAFzx-M_xFQQ5Gom9a-52" value="&lt;p class=&quot;MsoNormal&quot;&gt;&lt;font face=&quot;等线&quot; color=&quot;#000000&quot;&gt;容器化部署&lt;/font&gt;&lt;/p&gt;" parent="1" vertex="1" style="rounded=0;whiteSpace=wrap;html=1;fillColor=#e3c800;strokeColor=#B09500;fontColor=#ffffff;">
          <mxGeometry as="geometry" height="20" width="69.25" y="625" x="342.12" />
        </mxCell>
        <mxCell id="8TcAFzx-M_xFQQ5Gom9a-53" value="&lt;p class=&quot;MsoNormal&quot;&gt;&lt;font color=&quot;#000000&quot; face=&quot;等线&quot;&gt;警告机制&lt;/font&gt;&lt;/p&gt;" parent="1" vertex="1" style="rounded=0;whiteSpace=wrap;html=1;fillColor=#e3c800;strokeColor=#B09500;fontColor=#ffffff;">
          <mxGeometry as="geometry" height="20" width="65.75" y="625" x="511.75" />
        </mxCell>
        <mxCell id="8TcAFzx-M_xFQQ5Gom9a-54" value="" parent="1" style="endArrow=classic;html=1;" edge="1">
          <mxGeometry as="geometry" height="50" width="50" relative="1">
            <mxPoint as="sourcePoint" y="587" x="379.41" />
            <mxPoint as="targetPoint" y="547.8333333333333" x="379.66" />
          </mxGeometry>
        </mxCell>
        <mxCell id="OwMu27jhyjzwBgv88Kzw-2" value="分布式消息系统" parent="1" vertex="1" style="rounded=0;whiteSpace=wrap;html=1;fillColor=#e51400;strokeColor=#B20000;fontColor=#ffffff;">
          <mxGeometry as="geometry" height="40" width="90" y="880" x="310" />
        </mxCell>
        <mxCell id="OwMu27jhyjzwBgv88Kzw-3" value="医生提交患者处方信息" parent="1" vertex="1" style="rounded=0;whiteSpace=wrap;html=1;">
          <mxGeometry as="geometry" height="40" width="80" y="800" x="160" />
        </mxCell>
        <mxCell id="OwMu27jhyjzwBgv88Kzw-6" value="请求到达核心业务层" parent="1" vertex="1" style="rounded=0;whiteSpace=wrap;html=1;">
          <mxGeometry as="geometry" height="40" width="80" y="880" x="160" />
        </mxCell>
        <mxCell id="OwMu27jhyjzwBgv88Kzw-7" value="" parent="1" style="endArrow=classic;html=1;exitX=1;exitY=0.5;exitDx=0;exitDy=0;" edge="1" source="OwMu27jhyjzwBgv88Kzw-6">
          <mxGeometry as="geometry" height="50" width="50" relative="1">
            <mxPoint as="sourcePoint" y="980" x="290" />
            <mxPoint as="targetPoint" y="900" x="310" />
          </mxGeometry>
        </mxCell>
        <mxCell id="OwMu27jhyjzwBgv88Kzw-8" value="" parent="1" style="endArrow=classic;html=1;exitX=0.5;exitY=1;exitDx=0;exitDy=0;entryX=0.5;entryY=0;entryDx=0;entryDy=0;" edge="1">
          <mxGeometry as="geometry" height="50" width="50" relative="1">
            <mxPoint as="sourcePoint" y="840" x="202.5" />
            <mxPoint as="targetPoint" y="880" x="202.5" />
          </mxGeometry>
        </mxCell>
        <mxCell id="OwMu27jhyjzwBgv88Kzw-9" value="消费处方信息" parent="1" vertex="1" style="rounded=0;whiteSpace=wrap;html=1;">
          <mxGeometry as="geometry" height="40" width="80" y="880" x="470.75" />
        </mxCell>
        <mxCell id="OwMu27jhyjzwBgv88Kzw-10" value="" parent="1" style="endArrow=classic;html=1;entryX=1;entryY=0.5;entryDx=0;entryDy=0;exitX=0;exitY=0.5;exitDx=0;exitDy=0;" edge="1" source="OwMu27jhyjzwBgv88Kzw-9" target="OwMu27jhyjzwBgv88Kzw-2">
          <mxGeometry as="geometry" height="50" width="50" relative="1">
            <mxPoint as="sourcePoint" y="990" x="430" />
            <mxPoint as="targetPoint" y="940" x="480" />
          </mxGeometry>
        </mxCell>
        <mxCell id="OwMu27jhyjzwBgv88Kzw-11" value="&lt;font color=&quot;#ff3333&quot;&gt;push&lt;/font&gt;" parent="1" vertex="1" style="text;html=1;strokeColor=none;fillColor=none;align=center;verticalAlign=middle;whiteSpace=wrap;rounded=0;">
          <mxGeometry as="geometry" height="20" width="40" y="880" x="255" />
        </mxCell>
        <mxCell id="OwMu27jhyjzwBgv88Kzw-12" value="&lt;font color=&quot;#ff0000&quot;&gt;pull&lt;/font&gt;" parent="1" vertex="1" style="text;html=1;strokeColor=none;fillColor=none;align=center;verticalAlign=middle;whiteSpace=wrap;rounded=0;">
          <mxGeometry as="geometry" height="20" width="40" y="880" x="416.75" />
        </mxCell>
        <mxCell id="OwMu27jhyjzwBgv88Kzw-13" value="存储层" parent="1" vertex="1" style="rounded=0;whiteSpace=wrap;html=1;">
          <mxGeometry as="geometry" height="40" width="85" y="960" x="468.25" />
        </mxCell>
        <mxCell id="OwMu27jhyjzwBgv88Kzw-18" value="" parent="1" style="endArrow=classic;html=1;exitX=0.5;exitY=1;exitDx=0;exitDy=0;entryX=0.5;entryY=0;entryDx=0;entryDy=0;" edge="1">
          <mxGeometry as="geometry" height="50" width="50" relative="1">
            <mxPoint as="sourcePoint" y="920" x="506.75" />
            <mxPoint as="targetPoint" y="960" x="506.75" />
          </mxGeometry>
        </mxCell>
        <mxCell id="OwMu27jhyjzwBgv88Kzw-20" value="功能测试" parent="1" vertex="1" style="rounded=0;whiteSpace=wrap;html=1;">
          <mxGeometry as="geometry" height="40" width="80" y="1220" x="370" />
        </mxCell>
        <mxCell id="OwMu27jhyjzwBgv88Kzw-21" value="性能测试" parent="1" vertex="1" style="rounded=0;whiteSpace=wrap;html=1;fillColor=#e51400;strokeColor=#B20000;fontColor=#ffffff;">
          <mxGeometry as="geometry" height="40" width="80" y="1300" x="370" />
        </mxCell>
        <mxCell id="OwMu27jhyjzwBgv88Kzw-22" value="" parent="1" style="endArrow=classic;startArrow=classic;html=1;entryX=0;entryY=0.5;entryDx=0;entryDy=0;exitX=0;exitY=0.5;exitDx=0;exitDy=0;" edge="1" source="OwMu27jhyjzwBgv88Kzw-21" target="OwMu27jhyjzwBgv88Kzw-20">
          <mxGeometry as="geometry" height="50" width="50" relative="1">
            <mxPoint as="sourcePoint" y="1300" x="280" />
            <mxPoint as="targetPoint" y="1250" x="330" />
            <Array as="points">
              <mxPoint y="1280" x="270" />
            </Array>
          </mxGeometry>
        </mxCell>
        <mxCell id="OwMu27jhyjzwBgv88Kzw-23" value="测试阶段" parent="1" vertex="1" style="text;html=1;strokeColor=none;fillColor=none;align=center;verticalAlign=middle;whiteSpace=wrap;rounded=0;dashed=1;">
          <mxGeometry as="geometry" height="20" width="56" y="1270" x="210" />
        </mxCell>
        <mxCell id="OwMu27jhyjzwBgv88Kzw-26" value="&lt;font color=&quot;#ff0000&quot;&gt;&amp;nbsp;可用性&lt;/font&gt;" parent="1" vertex="1" style="text;html=1;strokeColor=none;fillColor=none;align=center;verticalAlign=middle;whiteSpace=wrap;rounded=0;dashed=1;">
          <mxGeometry as="geometry" height="20" width="66.75" y="1450" x="188.25" />
        </mxCell>
        <mxCell id="OwMu27jhyjzwBgv88Kzw-27" value="=" parent="1" vertex="1" style="text;html=1;strokeColor=none;fillColor=none;align=center;verticalAlign=middle;whiteSpace=wrap;rounded=0;dashed=1;">
          <mxGeometry as="geometry" height="20" width="25" y="1450" x="245" />
        </mxCell>
        <mxCell id="OwMu27jhyjzwBgv88Kzw-28" value="平稳运行时间" parent="1" vertex="1" style="text;html=1;strokeColor=none;fillColor=none;align=center;verticalAlign=middle;whiteSpace=wrap;rounded=0;dashed=1;">
          <mxGeometry as="geometry" height="20" width="120" y="1430" x="310" />
        </mxCell>
        <mxCell id="OwMu27jhyjzwBgv88Kzw-29" value="" parent="1" style="endArrow=none;html=1;" edge="1">
          <mxGeometry as="geometry" height="50" width="50" relative="1">
            <mxPoint as="sourcePoint" y="1460" x="280" />
            <mxPoint as="targetPoint" y="1460" x="450" />
          </mxGeometry>
        </mxCell>
        <mxCell id="OwMu27jhyjzwBgv88Kzw-30" value="平稳运行时间" parent="1" vertex="1" style="text;html=1;strokeColor=none;fillColor=none;align=center;verticalAlign=middle;whiteSpace=wrap;rounded=0;dashed=1;">
          <mxGeometry as="geometry" height="20" width="120" y="1470" x="255" />
        </mxCell>
        <mxCell id="OwMu27jhyjzwBgv88Kzw-31" value="+" parent="1" vertex="1" style="text;html=1;strokeColor=none;fillColor=none;align=center;verticalAlign=middle;whiteSpace=wrap;rounded=0;dashed=1;">
          <mxGeometry as="geometry" height="20" width="20" y="1470" x="360" />
        </mxCell>
        <mxCell id="OwMu27jhyjzwBgv88Kzw-32" value="故障修复时间" parent="1" vertex="1" style="text;html=1;strokeColor=none;fillColor=none;align=center;verticalAlign=middle;whiteSpace=wrap;rounded=0;dashed=1;">
          <mxGeometry as="geometry" height="20" width="120" y="1470" x="360" />
        </mxCell>
        <mxCell id="vYmINC7X5dK-ffHIf7T--1" value="Zookeeper集群" parent="1" vertex="1" style="rounded=0;whiteSpace=wrap;html=1;">
          <mxGeometry as="geometry" height="40" width="120" y="1560" x="280" />
        </mxCell>
        <mxCell id="vYmINC7X5dK-ffHIf7T--2" value="服务消费者" parent="1" vertex="1" style="rounded=0;whiteSpace=wrap;html=1;">
          <mxGeometry as="geometry" height="40" width="120" y="1680" x="160" />
        </mxCell>
        <mxCell id="vYmINC7X5dK-ffHIf7T--3" value="服务提供者" parent="1" vertex="1" style="rounded=0;whiteSpace=wrap;html=1;">
          <mxGeometry as="geometry" height="40" width="125" y="1680" x="400" />
        </mxCell>
        <mxCell id="vYmINC7X5dK-ffHIf7T--4" value="" parent="1" style="endArrow=classic;html=1;entryX=0.5;entryY=1;entryDx=0;entryDy=0;exitX=0.5;exitY=0;exitDx=0;exitDy=0;" edge="1" source="vYmINC7X5dK-ffHIf7T--3" target="vYmINC7X5dK-ffHIf7T--1">
          <mxGeometry as="geometry" height="50" width="50" relative="1">
            <mxPoint as="sourcePoint" y="1820" x="500" />
            <mxPoint as="targetPoint" y="1770" x="550" />
          </mxGeometry>
        </mxCell>
        <mxCell id="vYmINC7X5dK-ffHIf7T--6" value="微服务 A&lt;br&gt;102.168.1.101:8090" parent="1" vertex="1" style="rounded=0;whiteSpace=wrap;html=1;fillColor=#fad9d5;strokeColor=#ae4132;">
          <mxGeometry as="geometry" height="40" width="120" y="1600" x="600" />
        </mxCell>
        <mxCell id="vYmINC7X5dK-ffHIf7T--7" value="微服务 A&lt;br&gt;102.168.1.102:8090" parent="1" vertex="1" style="rounded=0;whiteSpace=wrap;html=1;fillColor=#fad9d5;strokeColor=#ae4132;">
          <mxGeometry as="geometry" height="40" width="120" y="1680" x="600" />
        </mxCell>
        <mxCell id="vYmINC7X5dK-ffHIf7T--8" value="微服务 A&lt;br&gt;102.168.1.103:8090" parent="1" vertex="1" style="rounded=0;whiteSpace=wrap;html=1;fillColor=#fad9d5;strokeColor=#ae4132;">
          <mxGeometry as="geometry" height="40" width="120" y="1760" x="600" />
        </mxCell>
        <mxCell id="vYmINC7X5dK-ffHIf7T--9" value="" parent="1" style="endArrow=classic;html=1;entryX=0;entryY=0.5;entryDx=0;entryDy=0;exitX=1;exitY=0.5;exitDx=0;exitDy=0;" edge="1" source="vYmINC7X5dK-ffHIf7T--2" target="vYmINC7X5dK-ffHIf7T--3">
          <mxGeometry as="geometry" height="50" width="50" relative="1">
            <mxPoint as="sourcePoint" y="1740" x="290" />
            <mxPoint as="targetPoint" y="1690" x="340" />
          </mxGeometry>
        </mxCell>
        <mxCell id="vYmINC7X5dK-ffHIf7T--10" value="" parent="1" style="endArrow=classic;html=1;exitX=0;exitY=0.5;exitDx=0;exitDy=0;dashed=1;" edge="1" source="vYmINC7X5dK-ffHIf7T--6">
          <mxGeometry as="geometry" height="50" width="50" relative="1">
            <mxPoint as="sourcePoint" y="1790" x="540" />
            <mxPoint as="targetPoint" y="1690" x="530" />
          </mxGeometry>
        </mxCell>
        <mxCell id="vYmINC7X5dK-ffHIf7T--11" value="" parent="1" style="endArrow=classic;html=1;exitX=0;exitY=0.5;exitDx=0;exitDy=0;dashed=1;" edge="1">
          <mxGeometry as="geometry" height="50" width="50" relative="1">
            <mxPoint as="sourcePoint" y="1700" x="600" />
            <mxPoint as="targetPoint" y="1700" x="525" />
          </mxGeometry>
        </mxCell>
        <mxCell id="vYmINC7X5dK-ffHIf7T--12" value="" parent="1" style="endArrow=classic;html=1;exitX=0;exitY=0.5;exitDx=0;exitDy=0;dashed=1;" edge="1" source="vYmINC7X5dK-ffHIf7T--8">
          <mxGeometry as="geometry" height="50" width="50" relative="1">
            <mxPoint as="sourcePoint" y="1754" x="581.75" />
            <mxPoint as="targetPoint" y="1710" x="530" />
          </mxGeometry>
        </mxCell>
        <mxCell id="vYmINC7X5dK-ffHIf7T--14" value="" parent="1" style="endArrow=classic;html=1;entryX=0.5;entryY=0;entryDx=0;entryDy=0;" edge="1" target="vYmINC7X5dK-ffHIf7T--2">
          <mxGeometry as="geometry" height="50" width="50" relative="1">
            <mxPoint as="sourcePoint" y="1600" x="340" />
            <mxPoint as="targetPoint" y="1810" x="420" />
          </mxGeometry>
        </mxCell>
        <mxCell id="vYmINC7X5dK-ffHIf7T--15" value="&lt;font color=&quot;#ff3333&quot;&gt;微服务A搭建集群&lt;br&gt;统一对外提供服务&lt;/font&gt;" parent="1" vertex="1" style="text;html=1;strokeColor=none;fillColor=none;align=center;verticalAlign=middle;whiteSpace=wrap;rounded=0;dashed=1;">
          <mxGeometry as="geometry" height="20" width="120" y="1820" x="600" />
        </mxCell>
        <mxCell id="vYmINC7X5dK-ffHIf7T--16" value="注册" parent="1" vertex="1" style="text;html=1;strokeColor=none;fillColor=none;align=center;verticalAlign=middle;whiteSpace=wrap;rounded=0;">
          <mxGeometry as="geometry" height="20" width="40" y="1630" x="400" />
        </mxCell>
        <mxCell id="vYmINC7X5dK-ffHIf7T--17" value="订阅" parent="1" vertex="1" style="text;html=1;strokeColor=none;fillColor=none;align=center;verticalAlign=middle;whiteSpace=wrap;rounded=0;">
          <mxGeometry as="geometry" height="20" width="40" y="1630" x="218" />
        </mxCell>
        <mxCell id="vYmINC7X5dK-ffHIf7T--18" value="dubbo&lt;br&gt;远程调用" parent="1" vertex="1" style="text;html=1;strokeColor=none;fillColor=none;align=center;verticalAlign=middle;whiteSpace=wrap;rounded=0;">
          <mxGeometry as="geometry" height="20" width="55" y="1670" x="315" />
        </mxCell>
        <mxCell id="dd-nPzwq3zdHLR0h9W44-2" value="开始" parent="1" vertex="1" style="ellipse;whiteSpace=wrap;html=1;aspect=fixed;">
          <mxGeometry as="geometry" height="40" width="40" y="2440" x="360" />
        </mxCell>
        <mxCell id="dd-nPzwq3zdHLR0h9W44-3" value="随机生成16位字符串当做&lt;font color=&quot;#ff3333&quot;&gt;AES秘钥&lt;/font&gt;" parent="1" vertex="1" style="rounded=0;whiteSpace=wrap;html=1;">
          <mxGeometry as="geometry" height="40" width="120" y="2520" x="320" />
        </mxCell>
        <mxCell id="dd-nPzwq3zdHLR0h9W44-4" value="接口请求参数封装成json字符串" parent="1" vertex="1" style="rounded=0;whiteSpace=wrap;html=1;">
          <mxGeometry as="geometry" height="40" width="120" y="2600" x="320" />
        </mxCell>
        <mxCell id="dd-nPzwq3zdHLR0h9W44-5" value="使用AES秘钥对请求参数进行整体加密得到&lt;font color=&quot;#ff3333&quot;&gt;content&lt;/font&gt;" parent="1" vertex="1" style="rounded=0;whiteSpace=wrap;html=1;">
          <mxGeometry as="geometry" height="40" width="120" y="2680" x="320" />
        </mxCell>
        <mxCell id="dd-nPzwq3zdHLR0h9W44-6" value="使用&lt;font color=&quot;#ff3333&quot;&gt;RAS公钥&lt;/font&gt;对AES米秘钥进行加密得到一个&lt;font color=&quot;#ff3333&quot;&gt;key&lt;/font&gt;" parent="1" vertex="1" style="rounded=0;whiteSpace=wrap;html=1;">
          <mxGeometry as="geometry" height="40" width="120" y="2760" x="320" />
        </mxCell>
        <mxCell id="dd-nPzwq3zdHLR0h9W44-7" value="&amp;nbsp;把请求报文content和key传递到服务端" parent="1" vertex="1" style="rounded=0;whiteSpace=wrap;html=1;">
          <mxGeometry as="geometry" height="40" width="120" y="2840" x="320" />
        </mxCell>
        <mxCell id="dd-nPzwq3zdHLR0h9W44-8" value="结束" parent="1" vertex="1" style="ellipse;whiteSpace=wrap;html=1;aspect=fixed;">
          <mxGeometry as="geometry" height="40" width="40" y="2920" x="360" />
        </mxCell>
        <mxCell id="dd-nPzwq3zdHLR0h9W44-9" value="" parent="1" style="endArrow=classic;html=1;exitX=0.5;exitY=1;exitDx=0;exitDy=0;entryX=0.5;entryY=0;entryDx=0;entryDy=0;" edge="1" source="dd-nPzwq3zdHLR0h9W44-2" target="dd-nPzwq3zdHLR0h9W44-3">
          <mxGeometry as="geometry" height="50" width="50" relative="1">
            <mxPoint as="sourcePoint" y="2525" x="453.25" />
            <mxPoint as="targetPoint" y="2555" x="513.25" />
          </mxGeometry>
        </mxCell>
        <mxCell id="dd-nPzwq3zdHLR0h9W44-10" value="" parent="1" style="endArrow=classic;html=1;exitX=0.5;exitY=1;exitDx=0;exitDy=0;entryX=0.5;entryY=0;entryDx=0;entryDy=0;" edge="1">
          <mxGeometry as="geometry" height="50" width="50" relative="1">
            <mxPoint as="sourcePoint" y="2560" x="379.5" />
            <mxPoint as="targetPoint" y="2600" x="379.5" />
          </mxGeometry>
        </mxCell>
        <mxCell id="dd-nPzwq3zdHLR0h9W44-11" value="" parent="1" style="endArrow=classic;html=1;exitX=0.5;exitY=1;exitDx=0;exitDy=0;entryX=0.5;entryY=0;entryDx=0;entryDy=0;" edge="1">
          <mxGeometry as="geometry" height="50" width="50" relative="1">
            <mxPoint as="sourcePoint" y="2640" x="379.5" />
            <mxPoint as="targetPoint" y="2680" x="379.5" />
          </mxGeometry>
        </mxCell>
        <mxCell id="dd-nPzwq3zdHLR0h9W44-12" value="" parent="1" style="endArrow=classic;html=1;exitX=0.5;exitY=1;exitDx=0;exitDy=0;entryX=0.5;entryY=0;entryDx=0;entryDy=0;" edge="1">
          <mxGeometry as="geometry" height="50" width="50" relative="1">
            <mxPoint as="sourcePoint" y="2720" x="379.5" />
            <mxPoint as="targetPoint" y="2760" x="379.5" />
          </mxGeometry>
        </mxCell>
        <mxCell id="dd-nPzwq3zdHLR0h9W44-13" value="" parent="1" style="endArrow=classic;html=1;exitX=0.5;exitY=1;exitDx=0;exitDy=0;entryX=0.5;entryY=0;entryDx=0;entryDy=0;" edge="1">
          <mxGeometry as="geometry" height="50" width="50" relative="1">
            <mxPoint as="sourcePoint" y="2800" x="379.5" />
            <mxPoint as="targetPoint" y="2840" x="379.5" />
          </mxGeometry>
        </mxCell>
        <mxCell id="dd-nPzwq3zdHLR0h9W44-14" value="" parent="1" style="endArrow=classic;html=1;exitX=0.5;exitY=1;exitDx=0;exitDy=0;entryX=0.5;entryY=0;entryDx=0;entryDy=0;" edge="1">
          <mxGeometry as="geometry" height="50" width="50" relative="1">
            <mxPoint as="sourcePoint" y="2880" x="379.5" />
            <mxPoint as="targetPoint" y="2920" x="379.5" />
          </mxGeometry>
        </mxCell>
        <mxCell id="dd-nPzwq3zdHLR0h9W44-15" value="&lt;p class=&quot;MsoNormal&quot;&gt;&lt;font face=&quot;等线&quot; color=&quot;#000000&quot;&gt;灰度发布&lt;/font&gt;&lt;/p&gt;" parent="1" vertex="1" style="rounded=0;whiteSpace=wrap;html=1;fillColor=#e3c800;strokeColor=#B09500;fontColor=#ffffff;">
          <mxGeometry as="geometry" height="20" width="65.75" y="625" x="428.87" />
        </mxCell>
      </root>
    </mxGraphModel>
  </diagram>
</mxfile>
